HIERARCHY
ROOT Hips
{
	OFFSET 0.000000 0.000000 0.000000
	CHANNELS 6 Xposition Yposition Zposition Zrotation Yrotation Xrotation 
	JOINT LHipJoint
	{
		OFFSET 0.000000 0.000000 0.000000
		CHANNELS 3 Zrotation Yrotation Xrotation
		JOINT LeftUpLeg
		{
			OFFSET 1.363060 -1.794630 0.839290
			CHANNELS 3 Zrotation Yrotation Xrotation
			JOINT LeftLeg
			{
				OFFSET 2.448110 -6.726130 0.000000
				CHANNELS 3 Zrotation Yrotation Xrotation
				JOINT LeftFoot
				{
					OFFSET 2.562200 -7.039590 0.000000
					CHANNELS 3 Zrotation Yrotation Xrotation
					JOINT LeftToeBase
					{
						OFFSET 0.157640 -0.433110 2.322550
						CHANNELS 3 Zrotation Yrotation Xrotation
						End Site
						{
							OFFSET 0.000000 0.000000 0.000000
						}
					}
				}
			}
		}
	}
	JOINT RHipJoint
	{
		OFFSET 0.000000 0.000000 0.000000
		CHANNELS 3 Zrotation Yrotation Xrotation
		JOINT RightUpLeg
		{
			OFFSET -1.305520 -1.794630 0.839290
			CHANNELS 3 Zrotation Yrotation Xrotation
			JOINT RightLeg
			{
				OFFSET -2.542530 -6.985550 0.000000
				CHANNELS 3 Zrotation Yrotation Xrotation
				JOINT RightFoot
				{
					OFFSET -2.568260 -7.056230 0.000000
					CHANNELS 3 Zrotation Yrotation Xrotation
					JOINT RightToeBase
					{
						OFFSET -0.164730 -0.452590 2.363150
						CHANNELS 3 Zrotation Yrotation Xrotation
						End Site
						{
							OFFSET 0.000000 0.000000 0.000000
						}
					}
				}
			}
		}
	}
}
MOTION
Frames: 19
Frame Time: 0.008333
3.219664 16.738278 1.934963 -144.851702 -87.200701 155.607832 -11.620713 3.808764 -0.340569 -2.518654 5.621050 2.944430 -0.472416 1.732430 28.935752 0.573533 2.044353 5.398751 0.353000 0.000000 -78.138300 7.867791 -1.171356 4.255144 9.842510 9.125193 -34.843962 2.809320 -0.352534 10.737553 0.096860 -0.837068 10.063148 -1.030800 -0.000000 -23.847500
3.044611 16.768923 1.903716 -138.220850 -87.102525 149.037373 -11.842256 3.769482 -0.360969 -1.830874 5.920917 1.494262 -0.206184 1.879706 31.717584 0.679922 2.205632 7.664544 0.392200 0.000000 -76.410000 7.698720 -1.284924 4.315479 10.301119 9.629239 -34.572277 2.811241 -0.418390 11.627997 0.027527 -1.147743 9.281899 -1.113600 -0.000000 -22.471400
2.875023 16.800471 1.870716 -132.978881 -86.990087 143.851436 -12.026936 3.707123 -0.379419 -1.280424 6.145550 -0.034252 0.039423 2.009605 34.572367 0.821699 2.583154 9.767933 0.481899 0.000000 -73.482500 7.564656 -1.370630 4.349749 10.740531 10.021082 -34.223412 2.815462 -0.464842 12.400061 -0.049421 -1.473352 8.382912 -1.188400 0.000000 -21.228700
2.710770 16.832589 1.836201 -128.721618 -86.890954 139.643463 -12.172501 3.620644 -0.397229 -0.868340 6.288305 -1.623681 0.259620 2.124037 37.472045 0.991154 3.220309 11.597223 0.657799 -0.000000 -69.567300 7.465317 -1.433519 4.358588 11.154795 10.291760 -33.791837 2.822591 -0.492153 13.027415 -0.130399 -1.797019 7.425783 -1.249000 0.000000 -20.129600
2.551413 16.864990 1.800736 -124.954939 -86.816968 135.921007 -12.285802 3.510338 -0.414555 -0.574955 6.354792 -3.268940 0.454096 2.226492 40.390448 1.179871 4.138258 13.068648 0.945100 -0.000000 -65.014600 7.392370 -1.481436 4.347418 11.547910 10.450295 -33.277691 2.834935 -0.499691 13.483460 -0.211966 -2.109308 6.467164 -1.294800 0.000000 -19.148100
2.396800 16.897527 1.764350 -121.575272 -86.782206 132.575062 -12.366625 3.381838 -0.431511 -0.409968 6.340989 -4.947144 0.624034 2.322176 43.287616 1.382534 5.356083 14.141184 1.359699 0.000000 -60.233000 7.348226 -1.515420 4.312915 11.904618 10.483022 -32.690083 2.851649 -0.490743 13.777668 -0.286402 -2.372175 5.542866 -1.317100 0.000000 -18.291100
2.246404 16.930059 1.727425 -118.328356 -86.788329 129.350596 -12.421537 3.238458 -0.447951 -0.358539 6.253216 -6.644306 0.773741 2.414582 46.128517 1.595307 6.856138 14.804908 1.893800 0.000000 -55.604200 7.327611 -1.539595 4.257008 12.223385 10.399244 -32.037097 2.873316 -0.467294 13.914057 -0.348816 -2.568496 4.684116 -1.316100 0.000000 -17.534900
2.099526 16.962526 1.690335 -114.991216 -86.831804 126.028983 -12.457900 3.082939 -0.461349 -0.402590 6.097821 -8.353242 0.907954 2.505099 48.880930 1.815849 8.594881 15.076036 2.519400 0.000000 -51.427100 7.324009 -1.558372 4.185272 12.503731 10.218278 -31.334135 2.899969 -0.431283 13.903620 -0.396466 -2.691950 3.910688 -1.295100 0.000000 -16.853200
1.955892 16.994886 1.653214 -111.537036 -86.909348 122.578593 -12.478451 2.918886 -0.473615 -0.533845 5.884247 -10.051277 1.029329 2.595326 51.510280 2.041515 10.508122 14.979236 3.193200 -0.000000 -47.787500 7.336226 -1.571869 4.096489 12.739162 9.951005 -30.588495 2.929900 -0.386319 13.771545 -0.426723 -2.732005 3.227825 -1.255400 0.000000 -16.238200
1.814790 17.027056 1.616261 -107.872419 -87.013157 118.912118 -12.488322 2.748613 -0.481695 -0.735594 5.621698 -11.734669 1.140297 2.684025 53.986958 2.269223 12.513776 14.561400 3.863000 -0.000000 -44.805200 7.358855 -1.582802 3.998344 12.929122 9.626379 -29.818600 2.961582 -0.334473 13.539456 -0.441161 -2.700181 2.634951 -1.203200 -0.000000 -15.670800
1.676019 17.058998 1.579585 -104.074245 -87.134990 115.102900 -12.489007 2.575075 -0.488915 -0.994856 5.327708 -13.385049 1.240944 2.771330 56.282485 2.492788 14.513807 13.857864 4.469900 -0.000000 -42.324300 7.390198 -1.590640 3.891616 13.072465 9.265931 -29.027186 2.992782 -0.278600 13.232524 -0.441814 -2.606831 2.123418 -1.142200 -0.000000 -15.152400
1.539028 17.090558 1.543207 -100.224998 -87.267936 111.239919 -12.481549 2.401251 -0.493049 -1.299416 5.013888 -15.000753 1.331179 2.855055 58.371685 2.705657 16.413002 12.931314 4.966100 0.000000 -40.359300 7.428049 -1.596208 3.783462 13.169517 8.897082 -28.228799 3.021361 -0.220410 12.873852 -0.432823 -2.472246 1.679983 -1.077900 -0.000000 -14.678600
1.403378 17.121628 1.507156 -96.513392 -87.406412 107.515288 -12.464709 2.230509 -0.494620 -1.639194 4.695298 -16.575734 1.409871 2.933574 60.234044 2.899236 18.118030 11.837611 5.313099 -0.000000 -38.793600 7.472419 -1.599201 3.677908 13.222211 8.540446 -27.430110 3.045421 -0.161571 12.484210 -0.418182 -2.314840 1.289299 -1.013600 0.000000 -14.254500
1.269036 17.152011 1.471439 -93.189378 -87.545069 104.177748 -12.436319 2.064804 -0.496096 -2.001955 4.387389 -18.103940 1.475689 3.005300 61.852963 3.064844 19.549595 10.639252 5.491500 0.000001 -37.556300 7.523747 -1.598738 3.576638 13.237182 8.212465 -26.631630 3.063937 -0.103340 12.077368 -0.401546 -2.151818 0.938074 -0.952300 0.000000 -13.888400
1.135570 17.181544 1.435994 -90.509954 -87.684331 101.490132 -12.392856 1.907606 -0.495027 -2.383390 4.098486 -19.588381 1.527337 3.067519 63.218853 3.194902 20.650617 9.398580 5.502800 -0.000001 -36.586300 7.584641 -1.595072 3.484307 13.217563 7.920635 -25.841985 3.076197 -0.046418 11.666800 -0.385275 -1.992881 0.611638 -0.894900 0.000000 -13.585400
1.002883 17.209982 1.400965 -88.793528 -87.819495 99.770819 -12.331302 1.759918 -0.493605 -2.773175 3.839789 -21.026606 1.563578 3.118623 64.325117 3.283779 21.388171 8.174758 5.366800 -0.000000 -35.858400 7.656797 -1.587658 3.400648 13.173835 7.668237 -25.058170 3.082967 0.009007 11.254462 -0.370574 -1.843972 0.303460 -0.842000 0.000000 -13.350200
0.870933 17.237168 1.366375 -88.395425 -87.947367 99.375410 -12.248106 1.623789 -0.491564 -3.165625 3.617524 -22.420760 1.583289 3.157402 65.171244 3.328613 21.756335 7.013248 5.115100 -0.000000 -35.312300 7.743322 -1.575871 3.325921 13.114437 7.450844 -24.280807 3.085447 0.063143 10.841469 -0.356938 -1.701999 0.008090 -0.792300 0.000000 -13.183001
0.739528 17.262905 1.332413 -89.769965 -88.059574 100.758402 -12.140341 1.502224 -0.488612 -3.554258 3.436718 -23.770787 1.585393 3.183954 65.758892 3.330006 21.776100 5.949049 4.785800 0.000000 -34.909900 7.847135 -1.558502 3.259125 13.049538 7.260849 -23.505792 3.085647 0.117016 10.423421 -0.342571 -1.558460 -0.274975 -0.744500 0.000000 -13.078600
0.608744 17.287089 1.299204 -93.522508 -88.141087 104.522703 -12.005387 1.400162 -0.485005 -3.933108 3.301098 -25.077111 1.568398 3.200971 66.092183 3.291757 21.490559 4.998935 4.414799 0.000000 -34.586900 7.971278 -1.531828 3.196956 12.988665 7.088165 -22.728053 3.085946 0.172336 9.994602 -0.324383 -1.399357 -0.542299 -0.696600 0.000000 -13.026800
